<?xml version="1.0" encoding="UTF-8" standalone="no"?>
<svg
   version="1.1"
   id="svg3336"
   x="0px"
   y="0px"
   viewBox="0 0 87 134"
   style="enable-background:new 0 0 87 134;"
   xml:space="preserve"
   sodipodi:docname="Monogram.svg"
   inkscape:version="1.4.3 (0d15f75042, 2025-12-25)"
   xmlns:inkscape="http://www.inkscape.org/namespaces/inkscape"
   xmlns:sodipodi="http://sodipodi.sourceforge.net/DTD/sodipodi-0.dtd"
   xmlns="http://www.w3.org/2000/svg"
   xmlns:svg="http://www.w3.org/2000/svg"><defs
   id="defs1" />
  <style
   type="text/css"
   id="style1">
    .monogram-st0 {
      fill: white;
    }
    .monogram-st1 {
      fill: rgb(255, 239, 62);
    }
  </style>
  <sodipodi:namedview
   bordercolor="#666666"
   borderopacity="1"
   gridtolerance="10"
   guidetolerance="10"
   id="namedview3368"
   inkscape:current-layer="svg3336"
   inkscape:cx="15.699859"
   inkscape:cy="64.50771"
   inkscape:pageopacity="0"
   inkscape:pageshadow="2"
   inkscape:window-height="1008"
   inkscape:window-maximized="1"
   inkscape:window-width="1920"
   inkscape:window-x="0"
   inkscape:window-y="0"
   inkscape:zoom="6.1465521"
   objecttolerance="10"
   pagecolor="#ffffff"
   showgrid="false"
   inkscape:showpageshadow="2"
   inkscape:pagecheckerboard="0"
   inkscape:deskcolor="#d1d1d1">
  </sodipodi:namedview>
  
  <path
   id="path3340"
   class="monogram-st1"
   d="M 32.5 0 C 29.2 1.6 28.499609 5.7996094 27.599609 9.0996094 C 22.299609 10.399609 17.300391 8.1003906 12.400391 6.4003906 C 7.3003874 4.7003906 1.3 7.8992166 0 13.199219 L 0 16.400391 C 0.3 20.300391 0.4996092 24.299609 1.5996094 28.099609 C 2.2996094 29.199609 2.3007812 32.099219 4.3007812 31.199219 C 4.1007814 27.999219 3 25.099609 2 22.099609 C 4.6 23.599609 7.6996126 25.900391 10.599609 23.900391 C 13.699609 21.500391 11.500781 16.899219 8.8007812 15.199219 C 6.7007821 13.399219 3.9003906 14.299609 1.4003906 14.599609 C 2.9003906 10.799609 6.6003874 7.4 10.900391 8.5 C 16.300391 10 21.6 12.999609 27.5 11.599609 C 26.7 18.299609 27.500781 25.100781 27.300781 31.800781 C 20.700781 35.600781 16.100391 42.4 14.900391 50 C 12.500391 64.5 16.7 79.499609 24 92.099609 C 18.4 89.699609 11.700391 86.5 5.9003906 90 C 0.80039084 93.4 2.5992185 101.7 7.6992188 104 C 13.099219 107.4 19.599219 104.89922 24.699219 102.19922 C 20.199219 110.89922 18.999219 122.2 23.699219 131 C 25.099219 134.2 29.899609 134.50039 31.599609 131.40039 C 36.399609 123.10039 36.500781 112.69961 33.800781 103.59961 C 36.400781 105.09961 38.999609 106.89961 42.099609 107.09961 C 46.399609 107.49961 50.900781 105.7 53.800781 102.5 C 56.200781 100 56 95.599219 53.5 93.199219 C 49.8 89.399219 44.099609 88.499219 39.099609 89.199219 C 35.699609 89.799219 33.000781 92.199219 30.300781 94.199219 C 30.700781 76.099219 30.199219 58.099609 29.199219 40.099609 C 31.799219 41.899609 36.1 43.300391 38.5 40.400391 C 41 37.300391 39.2 33.299609 38 30.099609 C 40.3 32.499609 42.299609 35.399219 43.099609 38.699219 C 46.899609 51.899219 46.399609 65.9 47.099609 79.5 C 48.099609 78.1 48.599609 76.500781 48.599609 74.800781 C 48.799609 63.200781 49.300391 51.399219 52.400391 40.199219 C 53.200391 36.799219 55.1 33.699609 57.5 31.099609 C 56.5 34.199609 54.599219 38.4 57.699219 41 C 60.699219 43.9 66.100781 42.000781 66.300781 37.800781 C 67.600781 34.700781 64.899219 32.299609 63.199219 30.099609 C 66.599219 29.499609 70.100391 29.000391 73.400391 27.900391 C 72.600391 26.700391 71.4 26.299609 70 26.599609 C 65.7 27.099609 61.6 28.5 57.5 29.5 C 55 30.1 53.6 32.4 52.5 34.5 C 49.4 40.8 48.999219 47.899609 47.699219 54.599609 C 46.599219 46.099609 46.399219 36.299219 40.199219 29.699219 C 36.899219 26.299219 32.600781 29.599219 29.300781 31.199219 C 29.200781 24.399219 29.099609 17.600781 29.599609 10.800781 C 31.899609 9.4007833 34.499219 8.2 36.199219 6 C 37.999219 3.7 36.6 2.9605947e-16 32.5 0 z M 34.134766 2.4921875 C 34.221167 2.4911774 34.309766 2.49375 34.400391 2.5 C 36.300391 5.1 31.700391 6.6 29.900391 8 C 30.772266 5.965625 31.456323 2.5235016 34.134766 2.4921875 z M 81.300781 13.439453 C 79.238208 13.366064 77.118359 14.269141 75.599609 15.900391 C 76.599609 36.300391 77.8 56.699609 79 77.099609 C 79.2 80.799609 79.299609 84.499609 80.099609 88.099609 C 80.899609 86.899609 81.599609 85.599609 81.599609 84.099609 C 83.099609 64.099609 84.599609 44 86.099609 24 C 86.199609 21.2 86.299219 18.3 85.699219 15.5 C 84.474219 14.14375 82.905005 13.496533 81.300781 13.439453 z M 80.679688 15.644531 C 82.097363 15.588721 83.474609 16.162891 84.599609 17.400391 C 84.199609 27.300391 83.1 37.2 82.5 47 C 81.8 55 81.6 63.099609 80.5 71.099609 C 79.4 52.999609 78.400391 34.900391 77.400391 16.900391 C 78.450391 16.112891 79.57705 15.687939 80.679688 15.644531 z M 4.9648438 16.097656 C 7.5888916 16.166943 10.587891 18.913281 9.9003906 21.800781 C 6.5003906 23.100781 2.1 21.000391 2 17.900391 C 2.65625 16.587891 3.7720947 16.066162 4.9648438 16.097656 z M 34.171875 32.380859 C 36.620508 32.427344 38.600391 34.6375 37.900391 37 C 37.800391 40.4 33.099219 41.200781 31.199219 38.800781 C 29.999219 36.600781 30.399609 33.9 33.099609 32.5 C 33.462109 32.4125 33.82207 32.374219 34.171875 32.380859 z M 60.900391 32.400391 C 64.200391 32.700391 64.5 33.999609 65 36.099609 C 64.9 37.799609 64.500781 38.600391 63.300781 39.900391 C 61.400781 40.400391 58.699609 40.399219 58.099609 38.199219 C 57.199609 35.599219 58.200391 33.000391 60.900391 32.400391 z M 27.599609 34.199219 C 27.599609 54.599219 28.999609 74.900781 28.599609 95.300781 C 21.099609 85.100781 16.899609 72.599609 16.099609 60.099609 C 15.499609 50.399609 18.599609 39.299219 27.599609 34.199219 z M 10.900391 90.800781 C 17.200391 90.800781 23.2 93.6 28 97.5 C 23.7 100.8 18.600391 103.9 12.900391 103.5 C 8.6003886 103.6 3.9003906 99.500391 4.9003906 94.900391 C 5.3003906 92.100391 8.4003886 90.800781 10.900391 90.800781 z M 41.972656 91.332031 C 42.278198 91.340063 42.587891 91.362891 42.900391 91.400391 C 47.200391 91.900391 52.500781 93.399609 53.800781 98.099609 C 53.400781 101.29961 50.3 103.40039 47.5 104.40039 C 41 107.30039 34.200781 102.19922 30.300781 97.199219 C 33.582031 94.292969 37.389526 91.211548 41.972656 91.332031 z M 80.308594 92.416016 C 79.661353 92.43125 79.04375 92.557031 78.5 92.800781 C 73.8 94.600781 73.099609 101.09922 76.599609 104.19922 C 79.199609 106.59922 84.000391 104.9 85.400391 103 C 86.100391 102 87.100781 101.6 86.800781 97.5 C 86.475781 94.33125 83.113306 92.35 80.308594 92.416016 z M 80.945312 94.728516 C 83.114417 94.833823 85.052734 96.78125 84.900391 99.599609 C 84.600391 101.39961 82.099609 104.49961 79.099609 103.09961 C 75.899609 101.59961 75.800391 96.699219 78.900391 95.199219 C 79.425391 94.917969 79.970264 94.768018 80.509766 94.732422 C 80.655881 94.722781 80.800706 94.721495 80.945312 94.728516 z M 29.199219 99 C 34.899219 107.8 35.000391 119.5 30.900391 129 C 30.200391 130.9 28.199219 132.49961 26.199219 131.09961 C 22.199219 126.29961 22.699609 119.7 23.099609 114 C 23.399609 108.5 26.299219 103.6 29.199219 99 z "
   inkscape:label="path3340"
   style="opacity:1" />
  
  
  
  
  
  
  
  
  
  
  
  
  
</svg>
